<svg width="14" height="14" viewBox="0 0 14 14" fill="none" xmlns="http://www.w3.org/2000/svg">
<path d="M9.33337 2.91667H12.8334" stroke="#8C8478" stroke-opacity="0.72" stroke-width="0.875" stroke-linecap="round" stroke-linejoin="round"/>
<path d="M11.0834 1.16667V4.66667" stroke="#8C8478" stroke-opacity="0.72" stroke-width="0.875" stroke-linecap="round" stroke-linejoin="round"/>
<path d="M12.25 6.70833V11.0833C12.25 11.3928 12.1271 11.6895 11.9083 11.9083C11.6895 12.1271 11.3928 12.25 11.0833 12.25H2.91667C2.60725 12.25 2.3105 12.1271 2.09171 11.9083C1.87292 11.6895 1.75 11.3928 1.75 11.0833V2.91667C1.75 2.60725 1.87292 2.3105 2.09171 2.09171C2.3105 1.87292 2.60725 1.75 2.91667 1.75H7.29167" stroke="#8C8478" stroke-opacity="0.72" stroke-width="0.875" stroke-linecap="round" stroke-linejoin="round"/>
<path d="M12.25 8.75L10.4498 6.94983C10.2311 6.73111 9.93436 6.60825 9.625 6.60825C9.31564 6.60825 9.01895 6.73111 8.80017 6.94983L3.5 12.25" stroke="#8C8478" stroke-opacity="0.72" stroke-width="0.875" stroke-linecap="round" stroke-linejoin="round"/>
<path d="M5.25004 6.41666C5.89437 6.41666 6.41671 5.89433 6.41671 5.24999C6.41671 4.60566 5.89437 4.08333 5.25004 4.08333C4.60571 4.08333 4.08337 4.60566 4.08337 5.24999C4.08337 5.89433 4.60571 6.41666 5.25004 6.41666Z" stroke="#8C8478" stroke-opacity="0.72" stroke-width="0.875" stroke-linecap="round" stroke-linejoin="round"/>
</svg>
